<mxfile host="app.diagrams.net" modified="2023-09-21T18:42:50.403Z" agent="Mozilla/5.0 (X11; Linux x86_64) AppleWebKit/537.36 (KHTML, like Gecko) Chrome/117.0.0.0 Safari/537.36 Edg/117.0.2045.35" version="21.8.0" etag="k-c1-k2NrgCJpBelP78w" type="github">
  <diagram name="PÃ¡gina-1" id="TqNtZ8aGWSihj26Zdwwr">
    <mxGraphModel>
      <root>
        <mxCell id="0" />
        <mxCell id="1" parent="0" />
      </root>
    </mxGraphModel>
  </diagram>
</mxfile>
